<svg id="visual" viewBox="0 0 2000 540" width="2000" height="540" xmlns="http://www.w3.org/2000/svg" xmlns:xlink="http://www.w3.org/1999/xlink" version="1.1"><rect x="0" y="0" width="2000" height="540" fill="#FFF"></rect><path d="M0 32L47.7 30.5C95.3 29 190.7 26 285.8 22.8C381 19.7 476 16.3 571.2 19C666.3 21.7 761.7 30.3 857 31.7C952.3 33 1047.7 27 1143 27C1238.3 27 1333.7 33 1428.8 34C1524 35 1619 31 1714.2 29.8C1809.3 28.7 1904.7 30.3 1952.3 31.2L2000 32L2000 0L1952.3 0C1904.7 0 1809.3 0 1714.2 0C1619 0 1524 0 1428.8 0C1333.7 0 1238.3 0 1143 0C1047.7 0 952.3 0 857 0C761.7 0 666.3 0 571.2 0C476 0 381 0 285.8 0C190.7 0 95.3 0 47.7 0L0 0Z" fill="#002233" stroke-linecap="round" stroke-linejoin="miter"></path></svg>