<svg id="visual" viewBox="0 0 2000 540" width="2000" height="540" xmlns="http://www.w3.org/2000/svg" xmlns:xlink="http://www.w3.org/1999/xlink" version="1.1"><rect x="0" y="0" width="2000" height="540" fill="#cbd5e1"></rect><path d="M0 408L47.7 411.8C95.3 415.7 190.7 423.3 285.8 432.2C381 441 476 451 571.2 445.3C666.3 439.7 761.7 418.3 857 407.3C952.3 396.3 1047.7 395.7 1143 405.3C1238.3 415 1333.7 435 1428.8 443.5C1524 452 1619 449 1714.2 450.8C1809.3 452.7 1904.7 459.3 1952.3 462.7L2000 466L2000 541L1952.3 541C1904.7 541 1809.3 541 1714.2 541C1619 541 1524 541 1428.8 541C1333.7 541 1238.3 541 1143 541C1047.7 541 952.3 541 857 541C761.7 541 666.3 541 571.2 541C476 541 381 541 285.8 541C190.7 541 95.3 541 47.7 541L0 541Z" fill="#461c70" stroke-linecap="round" stroke-linejoin="miter"></path></svg>