<svg version="1.2" xmlns="http://www.w3.org/2000/svg" viewBox="0 0 750 500" width="750" height="500">
	<title>db_200322-03-svg</title>
	<style>
		.s0 { fill: #000000 } 
	</style>
	<g id="Layer">
		<path id="Layer" fill-rule="evenodd" class="s0" d="m409.3 58.9c-8.7-7.2-19-13.3-30.6-18q-1.1-0.4-2.2-0.9c47.9-0.3 102.4 1.1 135 13.9 83.2 33.5 87 150 3.2 184.5-8.9 3.7-20.8 7.2-35.7 10.5 35.5 15.1 49.9 30 56.8 66.3 16.5 87.2 47.5 122.7 99.5 145-208 0-82.4-99.9-207.9-193.7-22.3-16.7-27.9-5.4-52.4-17.7q2-0.6 3.9-1.4c19.2 0.4 42.5 0.8 58.8-3.4 73.9-19.3 114.6-150.7-28.4-185.1z"/>
		<path id="Layer" fill-rule="evenodd" class="s0" d="m243.8 50.9c-19.8-1.9-27.9-2.6-49.4-11.6 52.4 0 145.5-5.4 192.6 13.2 83.1 33.5 87 150 3.2 184.5-8.9 3.6-20.9 7.2-35.7 10.5 35.5 15.1 49.9 30 56.8 66.3 16.5 87.1 47.5 122.7 99.5 145-208 0-82.4-99.9-207.9-193.7-23.2-17.4-28.4-4.5-55.5-19.2 20.3 0.3 47.4 1.5 65.8-3.3 80.2-21 121.4-174.2-69.4-191.7z"/>
	</g>
</svg>