<svg id="visual" viewBox="0 0 2000 540" width="2000" height="540" xmlns="http://www.w3.org/2000/svg" xmlns:xlink="http://www.w3.org/1999/xlink" version="1.1"><rect x="0" y="0" width="2000" height="540" fill="#cbd5e1"></rect><path d="M0 64L47.7 66.3C95.3 68.7 190.7 73.3 285.8 72.7C381 72 476 66 571.2 71C666.3 76 761.7 92 857 97C952.3 102 1047.7 96 1143 89.5C1238.3 83 1333.7 76 1428.8 68.7C1524 61.3 1619 53.7 1714.2 57.3C1809.3 61 1904.7 76 1952.3 83.5L2000 91L2000 0L1952.3 0C1904.7 0 1809.3 0 1714.2 0C1619 0 1524 0 1428.8 0C1333.7 0 1238.3 0 1143 0C1047.7 0 952.3 0 857 0C761.7 0 666.3 0 571.2 0C476 0 381 0 285.8 0C190.7 0 95.3 0 47.7 0L0 0Z" fill="#461c70" stroke-linecap="round" stroke-linejoin="miter"></path></svg>