<svg id="visual" viewBox="0 0 1300 540" width="1300" height="540" xmlns="http://www.w3.org/2000/svg" xmlns:xlink="http://www.w3.org/1999/xlink" version="1.1"><rect x="0" y="0" width="1300" height="540" fill="#cbd5e1"></rect><path d="M0 64L31 65.2C62 66.3 124 68.7 185.8 66.7C247.7 64.7 309.3 58.3 371.2 51C433 43.7 495 35.3 557 38.8C619 42.3 681 57.7 743 60.5C805 63.3 867 53.7 928.8 49.2C990.7 44.7 1052.3 45.3 1114.2 47.7C1176 50 1238 54 1269 56L1300 58L1300 0L1269 0C1238 0 1176 0 1114.2 0C1052.3 0 990.7 0 928.8 0C867 0 805 0 743 0C681 0 619 0 557 0C495 0 433 0 371.2 0C309.3 0 247.7 0 185.8 0C124 0 62 0 31 0L0 0Z" fill="#461c70" stroke-linecap="round" stroke-linejoin="miter"></path></svg>