<svg id="visual" viewBox="0 0 1300 540" width="1300" height="540" xmlns="http://www.w3.org/2000/svg" xmlns:xlink="http://www.w3.org/1999/xlink" version="1.1"><rect x="0" y="0" width="1300" height="540" fill="#ae96fa"></rect><path d="M0 373L21.7 386.5C43.3 400 86.7 427 130 427C173.3 427 216.7 400 260 391.7C303.3 383.3 346.7 393.7 390 400.2C433.3 406.7 476.7 409.3 520 415.3C563.3 421.3 606.7 430.7 650 422.2C693.3 413.7 736.7 387.3 780 377.3C823.3 367.3 866.7 373.7 910 383.3C953.3 393 996.7 406 1040 419.7C1083.3 433.3 1126.7 447.7 1170 442.8C1213.3 438 1256.7 414 1278.3 402L1300 390L1300 541L1278.3 541C1256.7 541 1213.3 541 1170 541C1126.7 541 1083.3 541 1040 541C996.7 541 953.3 541 910 541C866.7 541 823.3 541 780 541C736.7 541 693.3 541 650 541C606.7 541 563.3 541 520 541C476.7 541 433.3 541 390 541C346.7 541 303.3 541 260 541C216.7 541 173.3 541 130 541C86.7 541 43.3 541 21.7 541L0 541Z" fill="#461c70" stroke-linecap="round" stroke-linejoin="miter"></path></svg>