<svg id="visual" viewBox="0 0 2000 540" width="2000" height="540" xmlns="http://www.w3.org/2000/svg" xmlns:xlink="http://www.w3.org/1999/xlink" version="1.1"><rect x="0" y="0" width="2000" height="540" fill="#dccaca"></rect><path d="M0 477L47.7 480C95.3 483 190.7 489 285.8 483.7C381 478.3 476 461.7 571.2 456C666.3 450.3 761.7 455.7 857 457.7C952.3 459.7 1047.7 458.3 1143 463C1238.3 467.7 1333.7 478.3 1428.8 472.5C1524 466.7 1619 444.3 1714.2 436.8C1809.3 429.3 1904.7 436.7 1952.3 440.3L2000 444L2000 541L1952.3 541C1904.7 541 1809.3 541 1714.2 541C1619 541 1524 541 1428.8 541C1333.7 541 1238.3 541 1143 541C1047.7 541 952.3 541 857 541C761.7 541 666.3 541 571.2 541C476 541 381 541 285.8 541C190.7 541 95.3 541 47.7 541L0 541Z" fill="#461c70" stroke-linecap="round" stroke-linejoin="miter"></path></svg>