<svg id="visual" viewBox="0 0 1500 600" width="1500" height="600" xmlns="http://www.w3.org/2000/svg" xmlns:xlink="http://www.w3.org/1999/xlink" version="1.1"><rect x="0" y="0" width="1500" height="600" fill="#002233"></rect><path d="M0 168L35.7 165.7C71.3 163.3 142.7 158.7 214.2 160C285.7 161.3 357.3 168.7 428.8 157.8C500.3 147 571.7 118 643 104C714.3 90 785.7 91 857 106C928.3 121 999.7 150 1071.2 153.7C1142.7 157.3 1214.3 135.7 1285.8 127C1357.3 118.3 1428.7 122.7 1464.3 124.8L1500 127L1500 0L1464.3 0C1428.7 0 1357.3 0 1285.8 0C1214.3 0 1142.7 0 1071.2 0C999.7 0 928.3 0 857 0C785.7 0 714.3 0 643 0C571.7 0 500.3 0 428.8 0C357.3 0 285.7 0 214.2 0C142.7 0 71.3 0 35.7 0L0 0Z" fill="#cbd5e1" stroke-linecap="round" stroke-linejoin="miter"></path></svg>