<svg id="visual" viewBox="0 0 2000 540" width="2000" height="540" xmlns="http://www.w3.org/2000/svg" xmlns:xlink="http://www.w3.org/1999/xlink" version="1.1"><rect x="0" y="0" width="2000" height="540" fill="#efe5e5"></rect><path d="M0 61L47.7 58C95.3 55 190.7 49 285.8 54.3C381 59.7 476 76.3 571.2 82C666.3 87.7 761.7 82.3 857 80.3C952.3 78.3 1047.7 79.7 1143 75C1238.3 70.3 1333.7 59.7 1428.8 65.5C1524 71.3 1619 93.7 1714.2 101.2C1809.3 108.7 1904.7 101.3 1952.3 97.7L2000 94L2000 0L1952.3 0C1904.7 0 1809.3 0 1714.2 0C1619 0 1524 0 1428.8 0C1333.7 0 1238.3 0 1143 0C1047.7 0 952.3 0 857 0C761.7 0 666.3 0 571.2 0C476 0 381 0 285.8 0C190.7 0 95.3 0 47.7 0L0 0Z" fill="#002233" stroke-linecap="round" stroke-linejoin="miter"></path></svg>